<?xml version="1.0" encoding="UTF-8"?>
<svg width="904px" height="411px" viewBox="0 0 904 411" version="1.1" xmlns="http://www.w3.org/2000/svg" xmlns:xlink="http://www.w3.org/1999/xlink">
    <!-- Generator: Sketch 52.6 (67491) - http://www.bohemiancoding.com/sketch -->
    <title>* Illustration *</title>
    <desc>Created with Sketch.</desc>
    <defs>
        <path d="M0.10394906,35.9811434 C0.10394906,55.744323 16.0849871,71.7654184 35.7984744,71.7654184 C55.5119617,71.7654184 71.4929998,55.744323 71.4929998,35.9811434 C71.4929998,16.2177372 55.5119617,0.196641791 35.7984744,0.196641791 C16.0849871,0.196641791 0.10394906,16.2177372 0.10394906,35.9811434" id="path-1"></path>
        <path d="M45.3502631,0.0478011727 C20.3898341,0.0478011727 0.155245661,20.3333955 0.155245661,45.3569696 C0.155245661,70.3805437 20.3898341,90.6663646 45.3502631,90.6663646 C70.3111441,90.6663646 90.5457326,70.3805437 90.5457326,45.3569696" id="path-3"></path>
        <path d="M0.315914752,38.4473214 C0.315914752,59.6771588 15.3252909,76.8873934 33.8402398,76.8873934 C52.3549912,76.8873934 67.3645649,59.6771588 67.3645649,38.4473214 C67.3645649,17.2177106 52.3549912,0.00724946695 33.8402398,0.00724946695 C15.3252909,0.00724946695 0.315914752,17.2177106 0.315914752,38.4473214" id="path-5"></path>
        <polygon id="path-7" points="6.42224409e-06 0.0536899606 25.6889764 0.0536899606 25.6889764 12.8981781 6.42224409e-06 12.8981781"></polygon>
        <path d="M0,12.8981781 C0,19.9919321 5.75067003,25.7426663 12.8444882,25.7426663 C19.9257188,25.7426663 25.6686179,20.0126759 25.6889764,12.9361978 L25.6889764,12.8601585 C25.6686179,5.78361614 19.9257188,0.0536899606 12.8444882,0.0536899606 C5.75067003,0.0536899606 0,5.80435999 0,12.8981781" id="path-9"></path>
        <path d="M0,12.8981781 C0,19.9919321 5.75067003,25.7426663 12.8444882,25.7426663 C19.9257188,25.7426663 25.6686179,20.0126759 25.6889764,12.9361978 L25.6889764,12.8601585 C25.6686179,5.78361614 19.9257188,0.0536899606 12.8444882,0.0536899606 C5.75067003,0.0536899606 0,5.80435999 0,12.8981781 Z" id="path-11"></path>
        <path d="M0,12.8981781 C0,19.9919321 5.75067003,25.7426663 12.8444882,25.7426663 C19.9257188,25.7426663 25.6686179,20.0126759 25.6889764,12.9361978 L25.6889764,12.8601585 C25.6686179,5.78361614 19.9257188,0.0536899606 12.8444882,0.0536899606 C5.75067003,0.0536899606 0,5.80435999 0,12.8981781" id="path-13"></path>
        <path d="M0,12.8981781 C0,19.9919321 5.75067003,25.7426663 12.8444882,25.7426663 C19.9257188,25.7426663 25.6686179,20.0126759 25.6889764,12.9361978 L25.6889764,12.8601585 C25.6686179,5.78361614 19.9257188,0.0536899606 12.8444882,0.0536899606 C5.75067003,0.0536899606 0,5.80435999 0,12.8981781" id="path-15"></path>
        <path d="M0,12.8981781 C0,19.9919321 5.75067003,25.7426663 12.8444882,25.7426663 C19.9257188,25.7426663 25.6686179,20.0126759 25.6889764,12.9361978 L25.6889764,12.8601585 C25.6686179,5.78361614 19.9257188,0.0536899606 12.8444882,0.0536899606 C5.75067003,0.0536899606 0,5.80435999 0,12.8981781" id="path-17"></path>
        <path d="M0,12.8981781 C0,19.9919321 5.75067003,25.7426663 12.8444882,25.7426663 C19.9257188,25.7426663 25.6686179,20.0126759 25.6889764,12.9361978 L25.6889764,12.8601585 C25.6686179,5.78361614 19.9257188,0.0536899606 12.8444882,0.0536899606 C5.75067003,0.0536899606 0,5.80435999 0,12.8981781" id="path-19"></path>
        <path d="M0,12.8981781 C0,19.9919321 5.75067003,25.7426663 12.8444882,25.7426663 C19.9257188,25.7426663 25.6686179,20.0126759 25.6889764,12.9361978 L25.6889764,12.8601585 C25.6686179,5.78361614 19.9257188,0.0536899606 12.8444882,0.0536899606 C5.75067003,0.0536899606 0,5.80435999 0,12.8981781" id="path-21"></path>
        <path d="M0,12.8981781 C0,19.9919321 5.75067003,25.7426663 12.8444882,25.7426663 C19.9257188,25.7426663 25.6686179,20.0126759 25.6889764,12.9361978 L25.6889764,12.8601585 C25.6686179,5.78361614 19.9257188,0.0536899606 12.8444882,0.0536899606 C5.75067003,0.0536899606 0,5.80435999 0,12.8981781" id="path-23"></path>
        <path d="M0.075659585,91.1647863 C0.075659585,141.508948 40.8876248,182.320913 91.2317861,182.320913 C141.575947,182.320913 182.387913,141.508948 182.387913,91.1647863 C182.387913,40.820625 141.575947,0.00865983202 91.2317861,0.00865983202 C40.8876248,0.00865983202 0.075659585,40.820625 0.075659585,91.1647863" id="path-25"></path>
        <path d="M0.075659585,91.1647863 C0.075659585,141.508948 40.8876248,182.320913 91.2317861,182.320913 C141.575947,182.320913 182.387913,141.508948 182.387913,91.1647863 C182.387913,40.820625 141.575947,0.00865983202 91.2317861,0.00865983202 C40.8876248,0.00865983202 0.075659585,40.820625 0.075659585,91.1647863 Z" id="path-27"></path>
    </defs>
    <g id="Layouts" stroke="none" stroke-width="1" fill="none" fill-rule="evenodd">
        <g id="Kupuję-(Kontra)-C" transform="translate(-240.000000, -451.000000)">
            <g id="/-Hero-/-" transform="translate(154.000000, 75.000000)">
                <g id="*-Illustration-*">
                    <g id="illustration/avatar/magnifier/avatar-magnifier-2" transform="translate(357.600000, 412.800000)">
                        <g id="search-red" transform="translate(18.000000, 18.000000)">
                            <path d="M5.68434189e-14,149.97247 C5.68434189e-14,232.722481 66.8508131,299.804099 149.316109,299.804099 C231.61019,299.804099 298.355486,233.003166 298.632219,150.489889 L298.632219,149.455052 C298.355486,66.9427739 231.61019,0.140841731 149.316109,0.140841731 C66.8508131,0.140841731 5.68434189e-14,67.2224596 5.68434189e-14,149.97247" id="Clip-2" fill="#FFAA9A"></path>
                            <path d="M45.934186,258.082934 C64.3687074,219.398004 103.731936,192.675284 149.31601,192.675284 C194.899673,192.675284 234.263959,219.398365 252.698844,258.083716 C225.869225,283.92336 189.440891,299.804099 149.316109,299.804099 C109.191512,299.804099 72.7635487,283.92293 45.9341828,258.082931 Z" id="Combined-Shape" fill="#002F34"></path>
                            <path d="M236.371845,134.064818 C236.371845,182.768389 197.394984,222.250456 149.316792,222.250456 C101.23665,222.250456 62.2607637,182.768389 62.2607637,134.064818 C62.2607637,85.3602584 101.23665,45.8791793 149.316792,45.8791793 C197.394984,45.8791793 236.371845,85.3602584 236.371845,134.064818" id="Fill-8" fill="#FFD6C9"></path>
                            <path d="M64.0995961,115.944986 C72.3487984,75.932747 107.368024,45.8781915 149.316109,45.8781915 C188.668332,45.8781915 221.922061,72.3281231 232.697439,108.635945 C224.206929,113.66272 214.327085,116.543366 203.783078,116.543366 C178.486885,116.543366 157.014045,99.9632032 149.377138,76.9454932 C136.730508,108.403804 102.746886,126.310016 69.39048,117.563511 C67.590603,117.091595 65.8262979,116.550921 64.0995961,115.944986 Z" id="Combined-Shape" fill="#002F34"></path>
                            <path d="M121.368116,142.567791 C121.368116,147.990697 116.987181,152.385758 111.583929,152.385758 C106.179681,152.385758 101.799742,147.990697 101.799742,142.567791 C101.799742,137.145884 106.179681,132.749824 111.583929,132.749824 C116.987181,132.749824 121.368116,137.145884 121.368116,142.567791" id="Fill-21" fill="#002F34"></path>
                            <path d="M184.041064,34.9855854 C184.041064,54.2309586 168.494271,69.8314278 149.316109,69.8314278 C130.137948,69.8314278 114.59016,54.2309586 114.59016,34.9855854 C114.59016,15.741211 130.137948,0.140741843 149.316109,0.140741843 C168.494271,0.140741843 184.041064,15.741211 184.041064,34.9855854" id="Fill-24" fill="#002F34"></path>
                            <polygon id="Fill-27" fill="#FF5636" points="235.346079 269.551994 241.663146 254.564836 243.045813 251.283523 220.751922 196.014631 194.856527 206.531812 217.150418 261.800705 224.747622 265.036069"></polygon>
                            <path d="M265.346152,244.287568 C252.266864,260.469251 235.893433,273.860997 217.250204,283.435064 C211.848684,277.82454 208.525521,270.186186 208.525521,261.768741 C208.525521,244.545096 222.440787,230.581787 239.605172,230.581787 C250.313749,230.581787 259.757282,236.016735 265.346144,244.287579 Z" id="Combined-Shape" fill="#FFD6C9"></path>
                            <path d="M247.254133,128.08159 C260.266815,159.973231 244.752511,196.291286 212.602522,209.200404 C180.452532,222.10852 143.840272,206.718884 130.826579,174.827243 C117.813897,142.935602 133.328201,106.617547 165.478191,93.7084286 C197.629191,80.8003131 234.241452,96.1889453 247.254133,128.08159" id="Fill-34" fill="#FF5636"></path>
                            <path d="M220.623183,114.607158 C241.137698,131.90959 243.628197,162.434088 226.185602,182.783754 C208.743006,203.133419 177.972246,205.603906 157.457731,188.301474 C136.943217,170.999043 134.451707,140.475547 151.895313,120.125881 C169.337908,99.7752128 200.108669,97.3047264 220.623183,114.607158" id="Fill-36" fill="#FFD6C9"></path>
                            <g id="element/icon/like/filled" transform="translate(156.941857, 125.821159)" fill="#002F34">
                                <path d="M43.9358172,0.833415041 C38.2130993,0.833415041 33.1629964,3.7144573 30.2089813,8.07713992 C27.2549662,3.7144573 22.2048632,0.833415041 16.4821453,0.833415041 C7.39909795,0.833415041 0.00994215119,8.09062163 0.00994215119,17.0114717 C0.00994215119,20.5328954 1.15613295,23.8911903 3.39360722,26.807285 L26.6633395,54.7602706 L33.754623,54.7602706 L57.0916168,26.7210021 C59.2618296,23.8911903 60.4080204,20.5328954 60.4080204,17.0114717 C60.4080204,8.09062163 53.0188646,0.833415041 43.9358172,0.833415041" id="Fill-1"></path>
                            </g>
                        </g>
                    </g>
                    <g id="illustration/avatar/avatar-3" transform="translate(693.600000, 384.000000)">
                        <g id="Group" transform="translate(3.314286, 3.107143)">
                            <path d="M51.5708358,25.7854179 C51.5708358,40.0264712 40.0264712,51.5708358 25.7854179,51.5708358 C11.5443646,51.5708358 0,40.0264712 0,25.7854179 C0,11.5443646 11.5443646,0 25.7854179,0 C40.0264712,0 51.5708358,11.5443646 51.5708358,25.7854179" id="Fill-1" fill="#C7DCFF"></path>
                            <path d="M25.8527465,26.2151749 L7.73562537,44.2073503 C12.3719868,48.8120925 18.7775143,51.6598696 25.8527465,51.6598696 C32.9279787,51.6598696 39.3335062,48.8120925 43.9698676,44.2073503 L25.8527465,26.2151749 Z" id="Fill-4" fill="#002F34"></path>
                            <path d="M12.7738095,30.6548429 C15.4733995,37.7015531 23.4142338,41.240735 30.5095213,38.5594072 C37.6055251,35.8784351 41.1689266,27.9923651 38.4693366,20.945655 C35.7697466,13.8989449 27.8289123,10.3597629 20.7332666,13.0410907 C13.637621,15.7220628 10.0738614,23.6081328 12.7738095,30.6548429" id="Fill-8" fill="#3A77FF"></path>
                            <path d="M29.8143894,29.1734795 C28.4191118,29.1734795 27.2874185,28.0499467 27.2874185,26.663936 C27.2874185,25.2779253 28.4191118,24.1547481 29.8143894,24.1547481 C31.2096671,24.1547481 32.3413604,25.2779253 32.3413604,26.663936 C32.3413604,28.0499467 31.2096671,29.1734795 29.8143894,29.1734795" id="Fill-10" fill="#002F34"></path>
                            <path d="M21.4283985,29.1734795 C20.0331209,29.1734795 18.9014276,28.0499467 18.9014276,26.663936 C18.9014276,25.2779253 20.0331209,24.1547481 21.4283985,24.1547481 C22.8236762,24.1547481 23.9553695,25.2779253 23.9553695,26.663936 C23.9553695,28.0499467 22.8236762,29.1734795 21.4283985,29.1734795" id="Fill-12" fill="#002F34"></path>
                            <path d="M36.2194873,11.6598103 C35.6622357,11.6598103 35.1225326,11.7305868 34.6025267,11.8518672 C34.7307375,11.3290456 34.805945,10.7855957 34.805945,10.2236515 C34.805945,6.42341434 31.7041741,3.34303497 27.8775464,3.34303497 C24.9458877,3.34303497 22.4454184,5.15406046 21.4336989,7.70877297 C19.9524699,6.60586841 18.1123938,5.9521636 16.1190377,5.9521636 C11.221599,5.9521636 7.25171903,9.89502075 7.25171903,14.7579727 C7.25171903,16.9595139 8.06718287,18.9707765 9.41160591,20.514345 C7.97729204,21.4778305 7.03433363,23.1081802 7.03433363,24.9572614 C7.03433363,27.9174274 9.45064217,30.3170717 12.4313648,30.3170717 C15.4120875,30.3170717 17.8283961,27.9174274 17.8283961,24.9572614 C17.8283961,24.4294606 17.7485329,23.9205098 17.6052806,23.4385892 C21.2567823,22.8261411 24.1476141,19.9989923 24.8305696,16.3957913 C25.7513238,16.8449911 26.7827406,17.1042679 27.8775464,17.1042679 C28.3961198,17.1042679 28.9000099,17.0430943 29.3859934,16.9356846 C29.2430992,17.4919384 29.1585803,18.0716657 29.1585803,18.6720213 C29.1585803,22.5448133 32.3198009,25.6842324 36.2194873,25.6842324 C40.1195317,25.6842324 43.2803942,22.5448133 43.2803942,18.6720213 C43.2803942,14.7992294 40.1195317,11.6598103 36.2194873,11.6598103" id="Fill-14" fill="#002F34"></path>
                        </g>
                    </g>
                    <g id="illustration/avatar/avatar-8" transform="translate(169.000000, 683.000000)">
                        <g id="Group-25" transform="translate(5.464286, 5.464286)">
                            <path d="M90.660182,45.5357822 C90.660182,70.5593563 70.4255936,90.8449507 45.4649385,90.8449507 C20.5042835,90.8449507 0.269695083,70.5593563 0.269695083,45.5357822 C0.269695083,20.5122082 20.5042835,0.226613806 45.4649385,0.226613806 C70.4255936,0.226613806 90.660182,20.5122082 90.660182,45.5357822" id="Fill-1" fill="#FFCE32"></path>
                            <g id="Group-5" transform="translate(16.927125, 7.201666)">
                                <mask id="mask-2" fill="white">
                                    <use xlink:href="#path-1"></use>
                                </mask>
                                <g id="Clip-4"></g>
                                <path d="M61.3421933,39.6011421 C61.3421933,55.4482503 48.5279859,68.2947588 32.7209495,68.2947588 C16.9136871,68.2947588 4.09947975,55.4482503 4.09947975,39.6011421 C4.09947975,23.7542604 16.9136871,10.9077519 32.7209495,10.9077519 C48.5279859,10.9077519 61.3421933,23.7542604 61.3421933,39.6011421" id="Fill-3" fill="#002F34" mask="url(#mask-2)"></path>
                            </g>
                            <g id="Group-8" transform="translate(0.114495, 0.178745)">
                                <mask id="mask-4" fill="white">
                                    <use xlink:href="#path-3"></use>
                                </mask>
                                <g id="Clip-7"></g>
                                <path d="M76.6803516,92.5865445 C76.6803516,109.766648 62.7880117,123.694007 45.6511053,123.694007 C28.5139729,123.694007 14.621633,109.766648 14.621633,92.5865445 C14.621633,75.406214 28.5139729,61.4790818 45.6511053,61.4790818 C62.7880117,61.4790818 76.6803516,75.406214 76.6803516,92.5865445" id="Fill-6" fill="#F8FBCF" mask="url(#mask-4)"></path>
                            </g>
                            <g id="Group-11" transform="translate(1.075647, 7.654757)">
                                <mask id="mask-6" fill="white">
                                    <use xlink:href="#path-5"></use>
                                </mask>
                                <g id="Clip-10"></g>
                                <path d="M77.2756558,39.7783462 C77.2756558,58.2139672 62.3682308,73.1589699 43.9789641,73.1589699 C25.5896975,73.1589699 10.6824984,58.2139672 10.6824984,39.7783462 C10.6824984,21.3427252 25.5896975,6.39772255 43.9789641,6.39772255 C62.3682308,6.39772255 77.2756558,21.3427252 77.2756558,39.7783462" id="Fill-9" fill="#002F34" mask="url(#mask-6)"></path>
                            </g>
                            <g id="Group-24" transform="translate(11.865258, 11.959128)">
                                <path d="M0.106276615,33.2576319 C0.106276615,14.9617897 14.9007136,0.130059968 33.1507789,0.130059968 C51.4006182,0.130059968 66.1950551,14.9617897 66.1950551,33.2576319" id="Fill-12" fill="#002F34"></path>
                                <path d="M58.2668151,33.5766538 C58.2668151,46.9070642 47.4877496,57.7133009 34.190857,57.7133009 C20.8941904,57.7133009 10.1151248,46.9070642 10.1151248,33.5766538 C10.1151248,20.2464699 20.8941904,9.44023321 34.190857,9.44023321 C47.4877496,9.44023321 58.2668151,20.2464699 58.2668151,33.5766538" id="Fill-14" fill="#D2B982"></path>
                                <path d="M57.8631312,29.1592364 C59.4569415,16.6940045 46.5003691,7.79415112 34.7087041,7.79415112 C31.098734,7.79415112 27.7954137,6.99081956 24.0839803,11.6653665 C31.6162196,22.2269336 43.9335052,29.1227625 57.8631312,29.1592364" id="Fill-16" fill="#002F34"></path>
                                <path d="M7.05495491,28.6873414 C5.96733137,31.6102359 10.1352367,34.667472 10.170941,35.206198 C16.8616448,29.2460035 21.6222858,21.1565045 23.3975549,11.9974827 C18.2315126,8.49734941 11.7640733,16.0309049 7.05495491,28.6873414" id="Fill-18" fill="#002F34"></path>
                                <path d="M48.8037673,34.7080464 C48.8037673,37.1386567 46.8382261,39.1091525 44.4139533,39.1091525 C41.9894544,39.1091525 40.0239133,37.1386567 40.0239133,34.7080464 C40.0239133,32.277436 41.9894544,30.3069403 44.4139533,30.3069403 C46.8382261,30.3069403 48.8037673,32.277436 48.8037673,34.7080464" id="Fill-20" fill="#002F34"></path>
                                <path d="M28.3579815,34.7080464 C28.3579815,37.1386567 26.3924403,39.1091525 23.9681675,39.1091525 C21.5436686,39.1091525 19.5781275,37.1386567 19.5781275,34.7080464 C19.5781275,32.277436 21.5436686,30.3069403 23.9681675,30.3069403 C26.3924403,30.3069403 28.3579815,32.277436 28.3579815,34.7080464" id="Fill-22" fill="#002F34"></path>
                            </g>
                        </g>
                    </g>
                    <g id="illustration/avatar/avatar-7" transform="translate(288.000000, 572.000000)">
                        <g id="Group-29" transform="translate(1.657143, 1.553571)">
                            <g id="Group-3" transform="translate(0.000000, 0.010532)">
                                <mask id="mask-8" fill="white">
                                    <use xlink:href="#path-7"></use>
                                </mask>
                                <g id="Clip-2"></g>
                                <path d="M6.42224409e-06,12.8981781 C6.42224409e-06,5.80435999 5.75067645,0.0536899606 12.8444946,0.0536899606 C19.9383128,0.0536899606 25.6889828,5.80435999 25.6889828,12.8981781" id="Fill-1" fill="#002F34" mask="url(#mask-8)"></path>
                            </g>
                            <g id="Group-28" transform="translate(0.000000, 0.010532)">
                                <g id="Group-6">
                                    <mask id="mask-10" fill="white">
                                        <use xlink:href="#path-9"></use>
                                    </mask>
                                    <g id="Clip-5"></g>
                                    <path d="M25.6889828,12.8981781 C25.6889828,19.9919321 19.9383128,25.7426663 12.8444946,25.7426663 C5.75067645,25.7426663 6.4222441e-06,19.9919321 6.4222441e-06,12.8981781 C6.4222441e-06,5.80435999 5.75067645,0.0536899606 12.8444946,0.0536899606 C19.9383128,0.0536899606 25.6889828,5.80435999 25.6889828,12.8981781" id="Fill-4" fill="#AA133D" mask="url(#mask-10)"></path>
                                </g>
                                <g id="Group-9">
                                    <mask id="mask-12" fill="white">
                                        <use xlink:href="#path-11"></use>
                                    </mask>
                                    <g id="Clip-8"></g>
                                    <polygon id="Fill-7" fill="#002F34" mask="url(#mask-12)" points="24.0565768 24.1102668 12.8444946 35.3223489 1.63241243 24.1102668 12.8444946 12.8981846"></polygon>
                                </g>
                                <g id="Group-12">
                                    <mask id="mask-14" fill="white">
                                        <use xlink:href="#path-13"></use>
                                    </mask>
                                    <g id="Clip-11"></g>
                                    <path d="M19.6684244,12.8981781 C19.6684244,16.6669437 16.6132344,19.7220694 12.8444689,19.7220694 C9.07576764,19.7220694 6.02051346,16.6669437 6.02051346,12.8981781 C6.02051346,9.12934843 9.07576764,6.07422269 12.8444689,6.07422269 C16.6132344,6.07422269 19.6684244,9.12934843 19.6684244,12.8981781" id="Fill-10" fill="#FFD6C9" mask="url(#mask-14)"></path>
                                </g>
                                <g id="Group-15">
                                    <mask id="mask-16" fill="white">
                                        <use xlink:href="#path-15"></use>
                                    </mask>
                                    <g id="Clip-14"></g>
                                    <path d="M18.3763716,12.8981781 C18.0524336,12.8981781 17.7898923,12.6355726 17.7898923,12.3116346 C17.7898923,11.9877608 18.0524336,11.7251553 18.3763716,11.7251553 C18.7002454,11.7251553 18.962851,11.9877608 18.962851,12.3116346 C18.962851,12.6355726 18.7002454,12.8981781 18.3763716,12.8981781" id="Fill-13" fill="#002F34" mask="url(#mask-16)"></path>
                                </g>
                                <g id="Group-18">
                                    <mask id="mask-18" fill="white">
                                        <use xlink:href="#path-17"></use>
                                    </mask>
                                    <g id="Clip-17"></g>
                                    <path d="M16.4299436,12.8981781 C16.1060698,12.8981781 15.8434642,12.6355726 15.8434642,12.3116346 C15.8434642,11.9877608 16.1060698,11.7251553 16.4299436,11.7251553 C16.7538816,11.7251553 17.0164229,11.9877608 17.0164229,12.3116346 C17.0164229,12.6355726 16.7538816,12.8981781 16.4299436,12.8981781" id="Fill-16" fill="#002F34" mask="url(#mask-18)"></path>
                                </g>
                                <g id="Group-21">
                                    <mask id="mask-20" fill="white">
                                        <use xlink:href="#path-19"></use>
                                    </mask>
                                    <g id="Clip-20"></g>
                                    <path d="M15.0921837,8.94197945 C15.0921837,11.7594179 12.808241,14.0433606 9.99086678,14.0433606 C7.1734283,14.0433606 4.88948563,11.7594179 4.88948563,8.94197945 C4.88948563,6.12460519 7.1734283,3.84066252 9.99086678,3.84066252 C12.808241,3.84066252 15.0921837,6.12460519 15.0921837,8.94197945" id="Fill-19" fill="#FF4134" mask="url(#mask-20)"></path>
                                </g>
                                <g id="Group-24">
                                    <mask id="mask-22" fill="white">
                                        <use xlink:href="#path-21"></use>
                                    </mask>
                                    <g id="Clip-23"></g>
                                    <path d="M19.1919131,7.2842377 C19.1919131,8.79153839 17.970017,10.0133703 16.4627805,10.0133703 C14.955544,10.0133703 13.7336479,8.79153839 13.7336479,7.2842377 C13.7336479,5.77700123 14.955544,4.55516929 16.4627805,4.55516929 C17.970017,4.55516929 19.1919131,5.77700123 19.1919131,7.2842377" id="Fill-22" fill="#FF4134" mask="url(#mask-22)"></path>
                                </g>
                                <g id="Group-27">
                                    <mask id="mask-24" fill="white">
                                        <use xlink:href="#path-23"></use>
                                    </mask>
                                    <g id="Clip-26"></g>
                                    <path d="M12.8444946,15.2415458 C12.8444946,17.6583005 10.8852606,19.6175345 8.46850593,19.6175345 C6.05168703,19.6175345 4.09251725,17.6583005 4.09251725,15.2415458 C4.09251725,12.8247269 6.05168703,10.8655572 8.46850593,10.8655572 C10.8852606,10.8655572 12.8444946,12.8247269 12.8444946,15.2415458" id="Fill-25" fill="#FF4134" mask="url(#mask-24)"></path>
                                </g>
                            </g>
                        </g>
                    </g>
                    <g id="illustration/avatar/avatar-1" transform="translate(83.200000, 478.400000)">
                        <g id="Group" transform="translate(3.371429, 3.160714)">
                            <path d="M26.2299941,52.4599881 C11.7434054,52.4599881 0,40.7165827 0,26.2299941 C0,11.7434054 11.7434054,-5.82422867e-15 26.2299941,-5.82422867e-15 C40.7165827,-5.82422867e-15 52.4599881,11.7434054 52.4599881,26.2299941 C52.4599881,40.7165827 40.7165827,52.4599881 26.2299941,52.4599881 Z" id="Fill-1" fill="#002F34"></path>
                            <path d="M26.2984835,26.6671606 L7.86899822,44.969546 C12.5852969,49.6536803 19.1012646,52.550557 26.2984835,52.550557 C33.4957024,52.550557 40.0116701,49.6536803 44.7279688,44.969546 L26.2984835,26.6671606 Z" id="Fill-4" fill="#CFC980"></path>
                            <path d="M12.9940476,31.1833747 C15.7401823,38.3515798 23.8179275,41.9517822 31.0355476,39.2242246 C38.2538962,36.4970288 41.8787357,28.4749921 39.132601,21.306787 C36.3864664,14.1385819 28.3087211,10.5383795 21.0907368,13.2659371 C13.8727524,15.9931329 10.2475487,24.0151696 12.9940476,31.1833747" id="Fill-8" fill="#F8DD3C"></path>
                            <path d="M30.3284306,29.6764706 C28.9090965,29.6764706 27.7578912,28.5335664 27.7578912,27.123659 C27.7578912,25.7137516 28.9090965,24.5712092 30.3284306,24.5712092 C31.7477648,24.5712092 32.8989701,25.7137516 32.8989701,27.123659 C32.8989701,28.5335664 31.7477648,29.6764706 30.3284306,29.6764706" id="Fill-10" fill="#002F34"></path>
                            <path d="M21.7978537,29.6764706 C20.3785196,29.6764706 19.2273143,28.5335664 19.2273143,27.123659 C19.2273143,25.7137516 20.3785196,24.5712092 21.7978537,24.5712092 C23.2171878,24.5712092 24.3683931,25.7137516 24.3683931,27.123659 C24.3683931,28.5335664 23.2171878,29.6764706 21.7978537,29.6764706" id="Fill-12" fill="#002F34"></path>
                            <path d="M36.8439612,11.8608415 C36.2771019,11.8608415 35.7280935,11.9328383 35.199122,12.0562098 C35.3295433,11.524374 35.4060475,10.9715543 35.4060475,10.3999213 C35.4060475,6.53416287 32.2507978,3.40067351 28.3581938,3.40067351 C25.3759892,3.40067351 22.8324084,5.24292357 21.8032454,7.84168285 C20.296478,6.71976269 18.4246764,6.05478711 16.3969522,6.05478711 C11.4150748,6.05478711 7.37674867,10.0656246 7.37674867,15.0124205 C7.37674867,17.2519193 8.20627223,19.2978589 9.57387498,20.8680406 C8.11483156,21.8481379 7.15561524,23.5065971 7.15561524,25.387559 C7.15561524,28.3987623 9.61358427,30.8397799 12.6456987,30.8397799 C15.6778132,30.8397799 18.1357822,28.3987623 18.1357822,25.387559 C18.1357822,24.8506582 18.0545421,24.3329324 17.9088199,23.8427028 C21.6232785,23.2196952 24.5639523,20.3438025 25.2586828,16.6784774 C26.1953122,17.135422 27.244512,17.3991691 28.3581938,17.3991691 C28.8857081,17.3991691 29.3982859,17.3369407 29.8926484,17.2276792 C29.7472906,17.7935235 29.6613145,18.3832461 29.6613145,18.9939527 C29.6613145,22.933517 32.8770389,26.127064 36.8439612,26.127064 C40.8112478,26.127064 44.0266079,22.933517 44.0266079,18.9939527 C44.0266079,15.0543885 40.8112478,11.8608415 36.8439612,11.8608415" id="Fill-14" fill="#F8FBCF"></path>
                        </g>
                    </g>
                    <g id="illustration/avatar/undefined/avatar-undefined-2" transform="translate(809.600000, 459.200000)">
                        <g id="Group" transform="translate(1.507307, 1.494495)">
                            <path d="M0,17.2401226 C0,26.7615837 7.79470128,34.4802452 17.4099623,34.4802452 C27.0252234,34.4802452 34.8199247,26.7615837 34.8199247,17.2401226 C34.8199247,7.7186615 27.0252234,-1.13686838e-13 17.4099623,-1.13686838e-13 C7.79470128,-1.13686838e-13 0,7.7186615 0,17.2401226 Z" id="bg" fill="#D8DFE0"></path>
                            <path d="M29.4374607,29.7049052 C26.3117515,32.6632393 22.0751407,34.4802452 17.4099623,34.4802452 C12.744784,34.4802452 8.50817319,32.6632393 5.38246395,29.7049052 L5.38246395,24.7090609 L29.4374607,24.7090609 L29.4374607,29.7049052 Z" id="body" fill="#406367"></path>
                            <path d="M26.6594314,17.2401485 C26.6594314,22.2986591 22.5182977,26.3993946 17.4099536,26.3993946 C12.3016966,26.3993946 8.16056294,22.2986591 8.16056294,17.2401485 C8.16056294,12.1816379 12.3016966,8.08090233 17.4099536,8.08090233 C22.5182977,8.08090233 26.6594314,12.1816379 26.6594314,17.2401485" id="face" fill="#EBEEEF"></path>
                            <path d="M11.179602,16.2611713 L11.1799118,16.2636162 L11.0586031,16.278689 C11.0527395,16.2794445 11.046871,16.280187 11.0409977,16.2809167 C11.0351319,16.2816456 11.0292677,16.2823609 11.0234049,16.2830625 L7.27059178,16.7493567 L6.79875444,13.02566 C6.79832996,13.0223782 6.79790963,13.0190948 6.79749346,13.0158099 C6.79708488,13.0125847 6.79668056,13.00936 6.79628048,13.0061358 L6.78006609,12.8781733 L6.78257124,12.8778621 C6.60253563,10.8704547 8.05906498,9.06669419 10.0948533,8.81370237 C10.7679643,8.73008127 11.4220102,8.82624371 12.0078063,9.06434495 C12.1844997,8.22954961 12.550816,7.42062457 13.1148898,6.70177873 C15.0536781,4.23099658 18.6112119,3.73912749 21.154153,5.55353727 L21.1565427,5.55049196 L21.3206802,5.67678968 C21.3227278,5.67836099 21.3247747,5.67993385 21.3268208,5.68150827 C21.3288752,5.68308905 21.3309283,5.68467092 21.33298,5.68625388 L25.9479384,9.23729218 L22.3640567,13.8045869 C22.3617552,13.8075313 22.3594505,13.8104741 22.3571424,13.8134155 C22.3548695,13.8163119 22.3525944,13.8192056 22.3503171,13.8220966 L22.224818,13.9820325 L22.2217432,13.9796666 C20.2102827,16.3598437 16.6403302,16.7535576 14.1452114,14.833686 C14.0225865,14.7393312 13.9047886,14.6411053 13.7918566,14.5393178 C13.2301223,15.4296577 12.2984774,16.0812241 11.179602,16.2611713 Z" id="hair" fill="#7F9799"></path>
                        </g>
                    </g>
                    <g id="illustration/avatar/avatar-10" transform="translate(796.000000, 592.800000)">
                        <g id="Group-43" transform="translate(10.982143, 10.982143)">
                            <g id="Group-33">
                                <mask id="mask-26" fill="white">
                                    <use xlink:href="#path-25"></use>
                                </mask>
                                <g id="Clip-32"></g>
                                <path d="M182.387913,91.164923 C182.387913,141.509084 141.575947,182.32105 91.2317861,182.32105 C40.8876248,182.32105 0.075659585,141.509084 0.075659585,91.164923 C0.075659585,40.8207617 40.8876248,0.00879656621 91.2317861,0.00879656621 C141.575947,0.00879656621 182.387913,40.8207617 182.387913,91.164923" id="Fill-31" fill="#3A77FF" mask="url(#mask-26)"></path>
                            </g>
                            <mask id="mask-28" fill="white">
                                <use xlink:href="#path-27"></use>
                            </mask>
                            <g id="Clip-35"></g>
                            <polygon id="Fill-34" fill="#1D3C81" mask="url(#mask-28)" points="28.2574876 256.604496 154.206084 256.604496 154.206084 130.656355 28.2574876 130.656355"></polygon>
                            <path d="M139.660712,91.164923 C139.660712,117.911498 117.978315,139.593894 91.2317405,139.593894 C64.4856214,139.593894 42.8032252,117.911498 42.8032252,91.164923 C42.8032252,64.4183482 64.4856214,42.735952 91.2317405,42.735952 C117.978315,42.735952 139.660712,64.4183482 139.660712,91.164923" id="Fill-36" fill="#EBEEEF" mask="url(#mask-28)"></path>
                            <path d="M118.180044,96.7121835 C116.417996,96.7121835 114.989124,95.283767 114.989124,93.5212633 C114.989124,91.7592154 116.417996,90.3307989 118.180044,90.3307989 C119.942092,90.3307989 121.370508,91.7592154 121.370508,93.5212633 C121.370508,95.283767 119.942092,96.7121835 118.180044,96.7121835 M118.180044,82.9918192 C112.364739,82.9918192 107.650144,87.7059583 107.650144,93.5212633 C107.650144,99.3370242 112.364739,104.051163 118.180044,104.051163 C123.995349,104.051163 128.709488,99.3370242 128.709488,93.5212633 C128.709488,87.7059583 123.995349,82.9918192 118.180044,82.9918192" id="Fill-37" fill="#002F34" mask="url(#mask-28)"></path>
                            <polygon id="Fill-38" fill="#002F34" mask="url(#mask-28)" points="80.4019825 97.4035116 101.441272 97.4035116 101.441272 89.7327236 80.4019825 89.7327236"></polygon>
                            <path d="M117.134529,73.0462756 C106.750934,86.4088521 87.5005835,88.8240337 74.1380069,78.4408951 C60.7749746,68.0573008 58.359793,48.80695 68.7433874,35.4439176 C79.1265259,22.081341 98.3768767,19.6657037 111.739909,30.049298 C125.102941,40.4328924 127.518123,59.6832432 117.134529,73.0462756" id="Fill-39" fill="#002F34" mask="url(#mask-28)"></path>
                            <polygon id="Fill-40" fill="#002F34" mask="url(#mask-28)" points="116.441697 73.9378281 91.3541632 54.4436346 110.848357 29.3565571 135.935434 48.8502947"></polygon>
                            <path d="M35.6663841,68.828983 C34.2985865,57.9257987 42.0281702,47.9788421 52.9308987,46.6105887 C63.8336272,45.242791 73.7810395,52.9723748 75.1488372,63.8751033 C76.5166349,74.7778318 68.7875069,84.7252441 57.8847784,86.0930417 C46.9815941,87.4612952 37.0341818,79.7317115 35.6663841,68.828983" id="Fill-41" fill="#002F34" mask="url(#mask-28)"></path>
                            <polygon id="Fill-42" fill="#002F34" mask="url(#mask-28)" points="35.5751369 68.101238 56.0437893 65.5329142 58.6121131 86.0015666 38.1434607 88.5698904"></polygon>
                        </g>
                    </g>
                    <g id="Group-Copy-2" transform="translate(296.000000, 376.000000)">
                        <path d="M101.975104,50.9875519 C101.975104,79.1475159 79.1475159,101.975104 50.9875519,101.975104 C22.8275878,101.975104 0,79.1475159 0,50.9875519 C0,22.8275878 22.8275878,0 50.9875519,0 C79.1475159,0 101.975104,22.8275878 101.975104,50.9875519" id="Fill-1" fill="#CBF7EE"></path>
                        <path d="M51.120686,51.8373444 L15.2962656,87.4146999 C24.4641107,96.5200217 37.1302683,102.151157 51.120686,102.151157 C65.1111037,102.151157 77.7772614,96.5200217 86.9451065,87.4146999 L51.120686,51.8373444 Z" id="Fill-4" fill="#00A49F"></path>
                        <path d="M25.2586667,60.6162521 C30.5967801,74.550271 46.2988216,81.5485762 60.3288963,76.2465741 C74.3603873,70.9452752 81.4065837,55.3515237 76.0684703,41.4175049 C70.7303568,27.483486 55.0283154,20.4851808 40.9975325,25.7871829 C26.9667497,31.0884818 19.9198451,46.6822333 25.2586667,60.6162521" id="Fill-8" fill="#23E5DB"></path>
                        <path d="M58.9543568,57.6870349 C56.1953638,57.6870349 53.9575768,55.4653842 53.9575768,52.7247153 C53.9575768,49.9840465 56.1953638,47.7630991 58.9543568,47.7630991 C61.7133499,47.7630991 63.9511369,49.9840465 63.9511369,52.7247153 C63.9511369,55.4653842 61.7133499,57.6870349 58.9543568,57.6870349" id="Fill-10" fill="#002F34"></path>
                        <path d="M42.3720719,57.6870349 C39.6130788,57.6870349 37.3752918,55.4653842 37.3752918,52.7247153 C37.3752918,49.9840465 39.6130788,47.7630991 42.3720719,47.7630991 C45.131065,47.7630991 47.368852,49.9840465 47.368852,52.7247153 C47.368852,55.4653842 45.131065,57.6870349 42.3720719,57.6870349" id="Fill-12" fill="#002F34"></path>
                        <path d="M71.6196647,23.0558677 C70.5177671,23.0558677 69.4505693,23.1958197 68.4223203,23.435637 C68.6758418,22.4018205 68.8245555,21.3272139 68.8245555,20.2160369 C68.8245555,12.7015266 62.6911779,6.61044819 55.1244835,6.61044819 C49.3274822,6.61044819 44.3831059,10.1915325 42.3825527,15.2431682 C39.4536011,13.0623075 35.8150728,11.7696852 31.8734517,11.7696852 C22.1893577,11.7696852 14.3393992,19.5662093 14.3393992,29.1821099 C14.3393992,33.535392 15.9518805,37.512421 18.6103148,40.5646414 C15.7741322,42.4698176 13.9095458,45.6936374 13.9095458,49.3499724 C13.9095458,55.2033433 18.6875043,59.9483504 24.5815237,59.9483504 C30.475543,59.9483504 35.2535015,55.2033433 35.2535015,49.3499724 C35.2535015,48.3063099 35.0955817,47.2999211 34.8123176,46.3469814 C42.0327214,45.1359391 47.7489925,39.5455936 49.0994545,32.4206986 C50.920135,33.3089369 52.9596371,33.8216255 55.1244835,33.8216255 C56.1498999,33.8216255 57.1462816,33.700662 58.1072553,33.4882724 C57.8246993,34.588197 57.6575734,35.7345378 57.6575734,36.9216687 C57.6575734,44.5796473 63.9085057,50.7874697 71.6196647,50.7874697 C79.331532,50.7874697 85.581756,44.5796473 85.581756,36.9216687 C85.581756,29.26369 79.331532,23.0558677 71.6196647,23.0558677" id="Fill-14" fill="#002F34"></path>
                    </g>
                </g>
            </g>
        </g>
    </g>
</svg>