<svg xmlns="http://www.w3.org/2000/svg" xmlns:xlink="http://www.w3.org/1999/xlink" width="1366" height="483" viewBox="0 0 1366 483">
    <defs>
        <path id="prefix__a" d="M0.663 0.782L346.309 0.782 346.309 482.395 0.663 482.395z"/>
        <path id="prefix__c" d="M0.663 0.782L346.309 0.782 346.309 482.395 0.663 482.395z"/>
        <path id="prefix__e" d="M0 481.412L1017 481.412 1017 0.605 0 0.605z"/>
    </defs>
    <g fill="none" fill-rule="evenodd">
        <path fill="#C6DBFF" d="M0 482L1365 482 1365 1 0 1z"/>
        <path fill="#002F34" d="M1019 482L1365 482 1365 1 1019 1z"/>
        <g transform="translate(1019)">
            <mask id="prefix__b" fill="#fff">
                <use xlink:href="#prefix__a"/>
            </mask>
            <path stroke="#C6DBFF" stroke-width="141" d="M0.663 -106.789L695.229 589.558" mask="url(#prefix__b)"/>
            <g>
                <mask id="prefix__d" fill="#fff">
                    <use xlink:href="#prefix__c"/>
                </mask>
                <path stroke="#C6DBFF" stroke-width="141" d="M0.663 589.559L695.229 -106.789" mask="url(#prefix__d)"/>
            </g>
        </g>
        <g transform="translate(0 1.176)">
            <mask id="prefix__f" fill="#fff">
                <use xlink:href="#prefix__e"/>
            </mask>
            <use fill="#C6DBFF" xlink:href="#prefix__e"/>
            <path stroke="#3A77FF" stroke-width="230" d="M646.855 241.008c0 213.845-173.376 387.2-387.248 387.2-213.87 0-387.247-173.355-387.247-387.2s173.376-387.2 387.247-387.2c213.872 0 387.248 173.356 387.248 387.2z" mask="url(#prefix__f)"/>
        </g>
    </g>
</svg>
