<svg xmlns="http://www.w3.org/2000/svg" width="420" height="66.7" viewBox="0 0 420 66.7"><title>Otomoto Profi</title><path fill="#222A51" d="M62.5 18.5l-1.2 6.6h10.3l-4 23h8l4.1-23h10.5l1.2-6.7H62.5z"/><path fill="#C92A18" d="M163.6 18.5l-9.8 10-6.3-10H140l-5.2 29.7h7.7l3.2-18.1 4.7 8.3h3.8l7.3-8.2-3.1 18h7.6l5.2-29.7h-7.6z"/><path fill="#222A51" d="M215.6 18.5l-1.3 6.6h10.4l-4.1 23h8l4.1-23h10.5l1.2-6.7h-28.8zm-163 3.2l-5.8 5.8c3.1 3.3 3 8.5-.3 11.7-3.2 3-8.2 3-11.4 0L29.3 45c6.5 6.4 16.9 6.3 23.3-.1 6.4-6.4 6.4-16.8 0-23.2"/><path fill="#C92A18" d="M46.8 27.5l5.8-5.8c-6.5-6.4-16.9-6.3-23.3.1-6.3 6.5-6.3 16.8 0 23.2l5.8-5.8c-3.2-3.2-3.3-8.4-.1-11.6l.1-.1c3.3-3.1 8.5-3.1 11.7 0m76.9-5.8l-5.8 5.8c3.2 3.2 3.2 8.4 0 11.7-3.2 3.2-8.4 3.2-11.7 0l-5.8 5.8c6.5 6.4 16.9 6.3 23.3-.1 6.4-6.4 6.4-16.8 0-23.2"/><path fill="#222A51" d="M117.9 27.5l5.8-5.8c-6.5-6.4-16.9-6.3-23.3.1-6.4 6.4-6.4 16.8 0 23.2l5.8-5.8c-3.2-3.2-3.3-8.4-.1-11.6l.1-.1c3.3-3.1 8.4-3.1 11.7 0m87.8-5.8l-5.8 5.8c3.2 3.2 3.2 8.4 0 11.7-3.2 3.2-8.4 3.2-11.7 0l-5.8 5.8c6.4 6.4 16.9 6.4 23.3 0s6.5-16.9 0-23.3"/><path fill="#C92A18" d="M199.9 27.5l5.8-5.8c-6.4-6.4-16.9-6.4-23.3 0-6.4 6.4-6.4 16.9 0 23.3l5.8-5.8c-3.2-3.2-3.3-8.4-.1-11.6l.1-.1c3.3-3.1 8.4-3.1 11.7 0m76.8-5.8l-5.8 5.8c3.2 3.2 3.2 8.4 0 11.7-3.2 3.2-8.4 3.2-11.7 0l-5.8 5.8c6.5 6.4 16.9 6.3 23.3-.1 6.4-6.4 6.4-16.8 0-23.2"/><path fill="#222A51" d="M270.9 27.5l5.8-5.8c-6.5-6.4-16.9-6.3-23.3.1-6.4 6.4-6.4 16.8 0 23.2l5.8-5.8c-3.2-3.2-3.3-8.4-.1-11.6l.1-.1c3.3-3.1 8.5-3.1 11.7 0M394.8 49.8H287.5l6.4-33h107.4z"/><path fill="#FFF" d="M317.8 30c0 4.7-3.6 7.7-9.1 7.7H305l-1 4.8h-5.2l3.7-18.5h7.8c4.9.1 7.5 2.3 7.5 6zm-5.2.5c0-1.6-1.1-2.3-2.9-2.3H307l-1.1 5.4h3.2c2.1 0 3.5-1.1 3.5-3.1zM333 37l3.2 5.5h-5.5l-2.7-4.9h-2.6l-.9 4.9h-5.3l3.7-18.5h7.9c4.7 0 7.4 2.2 7.4 5.9 0 3.3-2.1 6.2-5.2 7.1zm-3.1-8.8h-2.8l-1.1 5.4h3.2c2.3 0 3.6-1.1 3.6-3.2 0-1.5-1.1-2.2-2.9-2.2zM340.5 34.8c0-6.4 4.7-11.1 11.5-11.1 5.7 0 9.2 3.4 9.2 8.1 0 6.4-4.8 11.1-11.5 11.1-5.7 0-9.2-3.3-9.2-8.1zm15.4-2.6c0-2.5-1.6-4.1-4.4-4.1-3.6 0-5.8 3-5.8 6.4 0 2.5 1.6 4.1 4.4 4.1 3.6 0 5.8-2.9 5.8-6.4zM371.1 28.1l-.8 4.1h8.2l-.8 4h-8.1l-1.3 6.3H363l3.7-18.5h14.5l-.8 4h-9.3zM384.7 24.1h5.3l-3.7 18.5H381l3.7-18.5z"/></svg>
