<svg xmlns="http://www.w3.org/2000/svg" xmlns:xlink="http://www.w3.org/1999/xlink" width="94" height="13" viewBox="0 0 94 13">
    <defs>
        <path id="a" d="M0 .226v10.161h10.164V.226H0z"/>
    </defs>
    <g fill="none" fill-rule="evenodd">
        <path fill="#142355" d="M14.235.713l-.435 2.38h3.745l-1.46 8.34h2.909l1.46-8.34h3.789l.435-2.38z"/>
        <path fill="#C82814" d="M50.696.714l-3.52 3.58-2.28-3.58H42.2l-1.877 10.722h2.766l1.141-6.553 1.714 2.985h1.36l2.659-2.958-1.134 6.526h2.766L53.473.714z"/>
        <path fill="#142355" d="M69.486.713l-.436 2.38h3.745l-1.46 8.34h2.909l1.46-8.34h3.79l.435-2.38z"/>
        <g transform="translate(.5 -.108)">
            <mask id="b" fill="#fff">
                <use xlink:href="#a"/>
            </mask>
            <path fill="#C82814" d="M1.738 10.387a5.963 5.963 0 0 1 .005-8.422 5.96 5.96 0 0 1 8.42.005l-2.102 2.1a2.985 2.985 0 0 0-4.217-.002 2.987 2.987 0 0 0-.002 4.219l-2.104 2.1z" mask="url(#b)"/>
        </g>
        <path fill="#142355" d="M10.666 1.863a5.962 5.962 0 0 1-.004 8.422 5.96 5.96 0 0 1-8.421-.004l2.102-2.102a2.986 2.986 0 0 0 4.219.003 2.987 2.987 0 0 0 .001-4.218l2.103-2.101zM27.883 10.28a5.963 5.963 0 0 1 .006-8.423 5.96 5.96 0 0 1 8.42.004l-2.103 2.1a2.985 2.985 0 0 0-4.217-.001 2.987 2.987 0 0 0-.002 4.218l-2.104 2.101z"/>
        <path fill="#C82814" d="M36.311 1.863a5.962 5.962 0 0 1-.004 8.422 5.96 5.96 0 0 1-8.421-.004l2.102-2.102a2.986 2.986 0 0 0 4.219.003 2.987 2.987 0 0 0 .001-4.218l2.103-2.101zM57.488 10.28a5.963 5.963 0 0 1 .005-8.423 5.96 5.96 0 0 1 8.42.004l-2.102 2.1a2.985 2.985 0 0 0-4.217-.001 2.987 2.987 0 0 0-.002 4.218l-2.104 2.101z"/>
        <path fill="#142355" d="M65.916 1.863a5.962 5.962 0 0 1-.004 8.422 5.96 5.96 0 0 1-8.421-.004l2.102-2.102a2.986 2.986 0 0 0 4.218.003 2.987 2.987 0 0 0 .002-4.218l2.103-2.101zM83.133 10.28a5.963 5.963 0 0 1 .005-8.423 5.96 5.96 0 0 1 8.42.004l-2.102 2.1a2.985 2.985 0 0 0-4.217-.001 2.987 2.987 0 0 0-.003 4.218l-2.103 2.101z"/>
        <path fill="#C82814" d="M91.56 1.863a5.962 5.962 0 0 1-.003 8.422 5.96 5.96 0 0 1-8.422-.004l2.103-2.102a2.986 2.986 0 0 0 4.218.003 2.987 2.987 0 0 0 .002-4.218l2.103-2.101z"/>
    </g>
</svg>
