<svg xmlns="http://www.w3.org/2000/svg" width="24" height="24" viewBox="0 0 24 24">
    <path fill="#fff" fill-rule="evenodd" d="M17.493 18.207H7.215c-.02-2.075-.063-6.598-.063-6.831 0-2.816 2.334-5.108 5.203-5.108 2.87 0 5.202 2.292 5.202 5.108 0 .236-.043 4.757-.064 6.83zm2.086-.362c.022-2.203.049-6.286.049-6.47 0-3.34-2.329-6.147-5.466-6.944.052-.17.087-.349.087-.537a1.894 1.894 0 0 0-3.788 0c0 .188.035.365.087.537-3.137.796-5.466 3.603-5.466 6.945 0 .182.027 4.302.048 6.513L3 18.752l.022 1.525h7.457A1.888 1.888 0 0 0 12.355 22c.988 0 1.789-.759 1.877-1.723H21.616l.042-1.523-2.079-.91z"/>
</svg>
