<svg xmlns="http://www.w3.org/2000/svg" xmlns:xlink="http://www.w3.org/1999/xlink" width="56" height="56" viewBox="0 0 56 56">
    <defs>
        <path id="prefix__a" d="M56 28c0 15.464-12.536 28-28 28S0 43.464 0 28 12.536 0 28 0s28 12.536 28 28"/>
    </defs>
    <g fill="none" fill-rule="evenodd">
        <mask id="prefix__b" fill="#fff">
            <use xlink:href="#prefix__a"/>
        </mask>
        <use fill="#F2F4F5" xlink:href="#prefix__a"/>
        <g mask="url(#prefix__b)">
            <g>
                <path fill="#002F34" d="M18.26 3.174L36.52 19.92 18.26 36.667 0 19.92 18.26 3.174z" transform="translate(9.786 8.214)"/>
                <path fill="#FFF" d="M6.096 38.924L30.424 38.924 30.424 17.825 6.096 17.825z" transform="translate(9.786 8.214)"/>
                <path fill="#002F34" d="M10.424 28.193v-.003l-.05-.003c-.345-.047-.61-.34-.61-.696 0-.372.29-.677.66-.7v-.002h16.107c.39 0 .706.314.706.702 0 .388-.316.702-.706.702H10.424zm16.107-3.919c.39 0 .706.315.706.703 0 .388-.316.702-.706.702H10.424v-.004l-.05-.003c-.345-.046-.61-.34-.61-.695 0-.373.29-.677.66-.701v-.002h16.107zm0-2.514c.39 0 .706.314.706.702 0 .388-.316.702-.706.702H10.424v-.003l-.05-.003c-.345-.046-.61-.34-.61-.696 0-.372.29-.677.66-.7v-.002h16.107z" transform="translate(9.786 8.214)"/>
                <path fill="#EBF1FF" d="M36.52 19.92L18.26 36.667 35.223 52.224 36.52 50.934 36.52 22.4z" transform="translate(9.786 8.214)"/>
                <path fill="#3A77FF" d="M18.26 36.667L18.26 36.667 0 19.92 0 22.4 0 50.934 2.493 53.413 34.027 53.413 35.223 52.224z" transform="translate(9.786 8.214)"/>
                <path fill="#FFCE32" d="M25.042 17.984c2.096 0 3.796 1.69 3.796 3.776s-1.7 3.776-3.796 3.776c-2.097 0-3.797-1.69-3.797-3.776s1.7-3.776 3.797-3.776zm8.42-9.27l2.976 2.47-5.233 6.234-2.975-2.471 5.233-6.234zM6.889.155l3.756 7.21-3.44 1.774-3.757-7.21L6.887.155zM5.194 16.471c-.633 0-1.146-.51-1.146-1.14 0-.63.513-1.14 1.146-1.14.632 0 1.145.51 1.145 1.14 0 .63-.513 1.14-1.145 1.14m9.607 5.04l3.869.229-.485 8.107-3.869-.23.485-8.106zm-9.607-9.94c2.088 0 3.78 1.683 3.78 3.76s-1.692 3.761-3.78 3.761c-2.089 0-3.782-1.684-3.782-3.76 0-2.078 1.693-3.762 3.782-3.762zm14.39-7.612l1.186 8.035-3.834.56-1.187-8.035 3.835-.56z" transform="translate(9.786 8.214)"/>
            </g>
        </g>
    </g>
</svg>
