<svg xmlns="http://www.w3.org/2000/svg" xmlns:xlink="http://www.w3.org/1999/xlink" width="56" height="56" viewBox="0 0 56 56">
    <defs>
        <path id="prefix__a" d="M56 28c0 15.464-12.536 28-28 28S0 43.464 0 28 12.536 0 28 0s28 12.536 28 28"/>
    </defs>
    <g fill="none" fill-rule="evenodd">
        <mask id="prefix__b" fill="#fff">
            <use xlink:href="#prefix__a"/>
        </mask>
        <use fill="#F2F4F5" xlink:href="#prefix__a"/>
        <g mask="url(#prefix__b)">
            <g>
                <path fill="#3A77FF" d="M16.676 54.44l-3.08-1.717v-20.58c0-9.911 8.108-17.974 18.075-17.974h4.415c9.967 0 18.076 8.063 18.076 17.973 0 9.91-8.11 17.974-18.076 17.974H23.97c-.2 0-.396.07-.551.199l-.236.168-6.507 3.957z" transform="translate(8.268 9.268)"/>
                <path fill="#CEDDFF" d="M31.053 36.313l-.237-.168c-.155-.127-.35-.198-.551-.198H18.149C8.183 35.947.073 27.883.073 17.973S8.183 0 18.15 0h4.416C32.53 0 40.64 8.063 40.64 17.973v20.58l-3.081 1.717-6.506-3.957z" transform="translate(8.268 9.268)"/>
                <path stroke="#002F34" stroke-width="5" d="M29.747 24.322s-7.197 8.726-15.776-.83" transform="translate(8.268 9.268)"/>
                <path fill="#002F34" d="M15.661 9.322c-3.008 0-5.446 2.42-5.446 5.407 0 2.986 2.438 5.406 5.446 5.406 3.008 0 5.447-2.42 5.447-5.406 0-2.987-2.439-5.407-5.447-5.407m0 3.785c.901 0 1.634.727 1.634 1.622 0 .894-.733 1.622-1.634 1.622-.9 0-1.634-.728-1.634-1.622 0-.895.734-1.622 1.634-1.622" transform="translate(8.268 9.268)"/>
                <path stroke="#002F34" stroke-width="5" d="M29.747 14.356L23.361 14.356" transform="translate(8.268 9.268)"/>
            </g>
        </g>
    </g>
</svg>
