<svg xmlns="http://www.w3.org/2000/svg" xmlns:xlink="http://www.w3.org/1999/xlink" width="56" height="56" viewBox="0 0 56 56">
    <defs>
        <path id="prefix__a" d="M56 28c0 15.464-12.536 28-28 28S0 43.464 0 28 12.536 0 28 0s28 12.536 28 28"/>
        <path id="prefix__c" d="M0.161 0.237L32.35 0.237 32.35 59.379 0.161 59.379z"/>
        <path id="prefix__e" d="M4.752.074c-.475.043-.942.15-1.387.32C1.292 1.185.018 3.157.018 5.25c0 .613.11 1.237.341 1.844 1.02 2.68 4.019 4.026 6.698 3.006 2.073-.788 3.348-2.76 3.348-4.854 0-.63-.116-1.256-.341-1.844-.13-.341-.295-.668-.493-.975l-.001-.001C8.608.935 6.951.054 5.21.054c-.153 0-.306.007-.458.02"/>
    </defs>
    <g fill="none" fill-rule="evenodd">
        <mask id="prefix__b" fill="#fff">
            <use xlink:href="#prefix__a"/>
        </mask>
        <use fill="#F2F4F5" xlink:href="#prefix__a"/>
        <g mask="url(#prefix__b)">
            <g>
                <g>
                    <g transform="translate(11 10) translate(0 .024) translate(.075)">
                        <mask id="prefix__d" fill="#fff">
                            <use xlink:href="#prefix__c"/>
                        </mask>
                        <path fill="#C7DCFF" d="M28.3 59.379L4.211 59.379 0.161 55.328 0.161 4.287 4.211 0.237 28.3 0.237 32.35 4.287 32.35 55.328z" mask="url(#prefix__d)"/>
                    </g>
                    <path fill="#002F34" d="M28.365 59.322L4.299 59.322 0.253 55.275 0.253 4.283 4.299 0.237 28.365 0.237 32.411 4.283 32.411 55.275z" transform="translate(11 10) translate(0 .024)"/>
                    <path fill="#C7DCFF" d="M0.145 2.387L6.643 2.387 6.643 0.017 0.145 0.017z" transform="translate(11 10) translate(0 .024) translate(13.333 2.222)"/>
                    <path fill="#C7DCFF" d="M26.19 19.084c0 5.344-4.333 9.676-9.677 9.676-5.345 0-9.677-4.332-9.677-9.676s4.332-9.677 9.677-9.677c5.344 0 9.676 4.332 9.676 9.677" transform="translate(11 10) translate(0 .024)"/>
                    <path fill="#002F34" d="M9.301 26.034c1.846 1.846 4.395 2.987 7.212 2.987 2.816 0 5.365-1.141 7.21-2.987l-7.21-7.211L9.3 26.034z" transform="translate(11 10) translate(0 .024)"/>
                    <path fill="#FFF" d="M21.654 19.084c0 2.839-2.302 5.14-5.141 5.14-2.84 0-5.142-2.301-5.142-5.14 0-2.84 2.302-5.141 5.142-5.141 2.839 0 5.14 2.301 5.14 5.14" transform="translate(11 10) translate(0 .024)"/>
                </g>
                <g transform="translate(11 10) translate(11.301 13.861)">
                    <path fill="#3A77FF" d="M.359 7.093c1.02 2.68 4.019 4.026 6.698 3.006 2.68-1.02 4.026-4.018 3.007-6.698C9.044.72 6.045-.625 3.364.394.687 1.414-.66 4.414.36 7.094"/>
                </g>
                <g fill="#002F34">
                    <path fill-rule="nonzero" d="M8.622 9.948c-.527 0-.954-.427-.954-.954 0-.527.427-.954.954-.954.527 0 .955.427.955.954 0 .527-.428.954-.955.954m-3.167 0c-.34 0-.656-.182-.826-.477-.17-.295-.17-.66 0-.954.17-.296.485-.477.826-.477.527 0 .955.427.955.954 0 .527-.428.954-.955.954" transform="translate(11 10) translate(9.474 10.443)"/>
                    <path d="M11.042 3.287c-.211 0-.415.027-.611.073.05-.202.076-.41.077-.619 0-1.445-1.172-2.616-2.617-2.616-1.107 0-2.052.688-2.434 1.66-.579-.435-1.283-.67-2.007-.668-1.85 0-3.349 1.5-3.349 3.349C.1 5.27.39 6.047.917 6.655.05 7.24-.234 8.385.259 9.307c.494.921 1.604 1.32 2.571.924.967-.397 1.478-1.461 1.181-2.464C5.391 7.532 6.48 6.464 6.74 5.09c.358.176.752.269 1.151.269.196 0 .386-.023.57-.064-.054.211-.086.432-.086.66 0 1.473 1.194 2.667 2.667 2.667 1.473 0 2.666-1.194 2.666-2.667 0-1.473-1.193-2.667-2.666-2.667" transform="translate(11 10) translate(9.474 10.443)"/>
                </g>
            </g>
        </g>
    </g>
</svg>
