<svg xmlns="http://www.w3.org/2000/svg" width="23" height="33" viewBox="0 0 23 33">
    <g fill="none" fill-rule="evenodd">
        <path fill="#23E5DB" d="M22.94 11.52C22.94 5.158 17.804 0 11.47 0 5.135 0 0 5.158 0 11.52c0 3.619 1.662 6.847 4.26 8.959l-.026.002c1.91 1.527 2.543 4.064 2.543 4.806h9.367v-.014l.014.014c0-.742.632-3.28 2.542-4.806l-.02-.002a11.516 11.516 0 004.26-8.959"/>
        <path fill="#406367" d="M10.646 6.457L4.17 20.404l.089.075-.026.002a6.39 6.39 0 011.34 1.49l6.822-14.694-1.75-.82zM16.311 9.11l-1.75-.819-7.796 16.792c.008.077.012.146.012.203v4.752l2.264 2.274h4.84l2.263-2.274v-4.765H8.808L16.31 9.11z"/>
    </g>
</svg>
