<?xml version="1.0" encoding="UTF-8"?>
<svg width="24px" height="24px" viewBox="0 0 24 24" version="1.1" xmlns="http://www.w3.org/2000/svg" xmlns:xlink="http://www.w3.org/1999/xlink">
    <title>icon_building</title>
    <g id="icon_building" stroke="none" stroke-width="1" fill="none" fill-rule="evenodd">
        <path d="M11.4193658,2.18583544 L13,3 L13,6.70483544 L19.9286795,6.70532522 L20.9634287,7.5873913 L20.9634287,21.0243681 L20.0135309,21.7053252 L4,21.7053252 L3,20.7053252 L3,8.70532522 L3.4193658,7.89116066 L11.4193658,2.18583544 Z M18.963,8.705 L13,8.70483544 L13,19.7048354 L14.963,19.7048354 L14.9634287,16.7053252 L16.9634287,16.7053252 L16.963,19.7048354 L18.963,19.705 L18.963,8.705 Z M11,4.941 L5,9.219 L5,19.705 L11,19.705 L11,4.941 Z M8.96342866,14.7053252 L8.96342866,17.7053252 L6.96342866,17.7053252 L6.96342866,14.7053252 L8.96342866,14.7053252 Z M8.96342866,9.70532522 L8.96342866,12.7053252 L6.96342866,12.7053252 L6.96342866,9.70532522 L8.96342866,9.70532522 Z" id="Combined-Shape" fill="#fff" fill-rule="nonzero"></path>
    </g>
</svg>
