<svg xmlns="http://www.w3.org/2000/svg" xmlns:xlink="http://www.w3.org/1999/xlink" width="19" height="24" viewBox="0 0 19 24">
    <defs>
        <path id="prefix__a" d="M9.972 23.885c-.297.153-.647.153-.944 0-.292-.151-.783-.432-1.407-.835-1.034-.668-2.069-1.443-3.038-2.32C1.737 18.157 0 15.24 0 12V3.273c0-.5.33-.937.8-1.059L9.244.033c.168-.044.344-.044.512 0L18.2 2.214c.47.122.8.558.8 1.059V12c0 3.24-1.737 6.157-4.583 8.73-.97.877-2.004 1.652-3.038 2.32-.624.403-1.115.684-1.407.835zm.3-2.425c.958-.627 1.917-1.355 2.808-2.171 2.469-2.261 3.92-4.73 3.92-7.287V3.905L9.5 1.942 2 3.905v8.097c0 2.557 1.451 5.026 3.92 7.287.89.816 1.85 1.544 2.809 2.171.275.18.534.341.771.482.237-.14.496-.302.771-.482z"/>
    </defs>
    <g fill="none" fill-rule="evenodd">
        <use fill="#fff" xlink:href="#prefix__a"/>
    </g>
</svg>
