<svg xmlns="http://www.w3.org/2000/svg" width="24" height="24" viewBox="0 0 24 24">
    <path fill="#fff" fill-rule="evenodd" d="M10.536 12.964l.967 1v5.042l-.967.994h-6.69l-.966-.997v-5.04l.966-1h6.69zm10.577-.052l.967 1v5.043l-.967.992h-6.69l-.965-.997v-5.039l.966-1h6.69zM9.577 14.986h-4.8v2.98l4.8.011v-2.99zm10.578-.053h-4.8v2.98l4.8.012v-2.992zm.958-10.893l.967 1v5.043l-.967.993h-6.69l-.965-.997v-5.04l.966-.999h6.69zM10.536 4l.967 1v5.042l-.967.993h-6.69l-.966-.996v-5.04L3.846 4h6.69zm9.619 2.062h-4.8v2.98l4.8.012V6.062zm-10.578-.04h-4.8v2.98l4.8.012V6.022z"/>
</svg>
