<svg xmlns="http://www.w3.org/2000/svg" width="24" height="24" viewBox="0 0 24 24">
    <path fill="#002F34" fill-rule="evenodd" d="M11.958 5.982c3.977 0 7.212 3.265 7.212 7.276 0 2.35-1.103 4.496-2.983 5.864L16.164 24H7.84l.022-4.787c-1.939-1.353-3.118-3.575-3.118-5.955 0-4.011 3.237-7.276 7.213-7.276zm1.834 14.402h-3.546l-.006 1.218h3.548l.004-1.218zM11.958 8.38c-2.66 0-4.824 2.188-4.824 4.878 0 1.755.961 3.381 2.507 4.247l.617.344-.006 1.337h3.546l.007-1.396.582-.346c1.5-.892 2.394-2.458 2.394-4.186 0-2.69-2.164-4.878-4.823-4.878zm-8.205 2.44v1.199H0V10.82h3.753zm20.247 0v1.199h-3.639V10.82H24zm-3.894-8.427l.81.882-2.737 2.746-.845-.847 2.772-2.781zm-16.455.051l2.802 2.603-.81.88-2.845-2.642.853-.84zM12.555 0v4.04h-1.194V0h1.194z"/>
</svg>
