<svg xmlns="http://www.w3.org/2000/svg" width="24" height="24" viewBox="0 0 24 24">
    <path fill="#fff" fill-rule="evenodd" d="M17.614 19.998H6.386l-2.384-4.222V9.998h2.994V13l1.001 1 1-1V9.998h6.005V13l1.001 1 1-1V9.998h2.995v5.778l-2.384 4.222zM8.998 7.188c0-1.757 1.346-3.186 3.002-3.186 1.655 0 3.002 1.43 3.002 3.187v.806H8.998V7.19zm13.001 1.809l-1-1.002h-3.995V7.19C17.004 4.328 14.759 2 12 2 9.24 2 6.996 4.328 6.996 7.189v.806H3.001L2 8.997v7.043l.13.492 2.8 4.96.872.508h12.396l.87-.509 2.802-4.959.13-.492V8.997z"/>
</svg>
