<svg xmlns="http://www.w3.org/2000/svg" width="24" height="24" viewBox="0 0 24 24">
    <path fill="#fff" fill-rule="evenodd" d="M17.245 1.5l.917.277 4.06 4.06.278.918-1.015 5.076-.278.518L11.057 22.5H9.62L1.5 14.38v-1.436L11.651 2.793l.519-.278L17.245 1.5zm-.134 2.097l-4.242.848-9.215 9.216 6.685 6.685 9.215-9.215.849-4.242-3.292-3.292zM15.414 5.54a3.048 3.048 0 0 1 3.045 3.046 3.048 3.048 0 0 1-3.045 3.045 3.048 3.048 0 0 1-3.045-3.045 3.048 3.048 0 0 1 3.045-3.046zm0 2.03a1.016 1.016 0 0 0 0 2.03 1.016 1.016 0 0 0 0-2.03z"/>
</svg>
