<svg xmlns="http://www.w3.org/2000/svg" width="24" height="24" viewBox="0 0 24 24">
    <path fill="#fff" fill-rule="evenodd" d="M11.093 2L8.39 8.323H2.132L1.5 10.07l5.428 4.533-.67 2.346-1.127 3.955L6.627 22 12 18.41l1.673 1.118 3.7 2.472 1.497-1.095-1.128-3.955-.67-2.346L22.5 10.07l-.631-1.748H15.61L12.908 2h-1.814zM12 4.9l.996 2.329.863 2.017.195.455.256.6h4.833l-1.36 1.135-2.961 2.472.177.62 1.236 4.334-3.688-2.463-.547-.365-.547.365-1.624 1.085-.843.564-1.22.814L9 14.527l.177-.62-2.96-2.471-1.36-1.135H9.69l.257-.6.194-.455.863-2.017.996-2.33z"/>
</svg>
