<svg xmlns="http://www.w3.org/2000/svg" width="24" height="24" viewBox="0 0 24 24">
    <path fill="#002F34" fill-rule="evenodd" d="M8 15c1.303 0 2.412.837 2.825 2H21l1 1-1 1H10.825A3.003 3.003 0 0 1 8 21a3.003 3.003 0 0 1-2.825-2H3l-1-1 1-1h2.175A3.003 3.003 0 0 1 8 15zm0 2a1.001 1.001 0 0 0 0 2 1.001 1.001 0 0 0 0-2zm8-8c1.303 0 2.412.837 2.825 2H21l1 1-1 1h-2.175A3.003 3.003 0 0 1 16 15a3.003 3.003 0 0 1-2.825-2H3l-1-1 1-1h10.175A3.003 3.003 0 0 1 16 9zm0 2a1.001 1.001 0 0 0 0 2 1.001 1.001 0 0 0 0-2zM8 3c1.303 0 2.412.837 2.825 2H21l1 1-1 1H10.825A3.003 3.003 0 0 1 8 9a3.003 3.003 0 0 1-2.825-2H3L2 6l1-1h2.175A3.003 3.003 0 0 1 8 3zm0 2a1.001 1.001 0 0 0 0 2 1.001 1.001 0 0 0 0-2z"/>
</svg>
